HIERARCHY
ROOT Hips
{
	OFFSET -3.958830 18.904000 13.208200
	CHANNELS 6 Xposition Yposition Zposition Zrotation Yrotation Xrotation 
	JOINT LHipJoint
	{
		OFFSET 0.000000 0.000000 0.000000
		CHANNELS 3 Zrotation Yrotation Xrotation
		JOINT LeftUpLeg
		{
			OFFSET 1.800000 -1.400000 0.085000
			CHANNELS 3 Zrotation Yrotation Xrotation
			JOINT LeftLeg
			{
				OFFSET 2.215000 -6.000000 0.000000
				CHANNELS 3 Zrotation Yrotation Xrotation
				JOINT LeftFoot
				{
					OFFSET 2.500000 -6.900000 0.000000
					CHANNELS 3 Zrotation Yrotation Xrotation
					JOINT LeftToeBase
					{
						OFFSET 0.200000 -0.500000 1.950000
						CHANNELS 3 Zrotation Yrotation Xrotation
						End Site
						{
							OFFSET 0.000000 0.000000 0.000000
						}
					}
				}
			}
		}
	}
	JOINT RHipJoint
	{
		OFFSET 0.000000 0.000000 0.000000
		CHANNELS 3 Zrotation Yrotation Xrotation
		JOINT RightUpLeg
		{
			OFFSET -1.800000 -1.400000 0.085000
			CHANNELS 3 Zrotation Yrotation Xrotation
			JOINT RightLeg
			{
				OFFSET -2.215000 -6.000000 0.000000
				CHANNELS 3 Zrotation Yrotation Xrotation
				JOINT RightFoot
				{
					OFFSET -2.500000 -6.900000 0.000000
					CHANNELS 3 Zrotation Yrotation Xrotation
					JOINT RightToeBase
					{
						OFFSET -0.200000 -0.500000 1.950000
						CHANNELS 3 Zrotation Yrotation Xrotation
						End Site
						{
							OFFSET 0.000000 0.000000 0.000000
						}
					}
				}
			}
		}
	}
	JOINT LowerBack
	{
		OFFSET 0.000000 0.000000 0.000000
		CHANNELS 3 Zrotation Yrotation Xrotation
		JOINT Spine
		{
			OFFSET -0.087000 1.940000 -0.288900
			CHANNELS 3 Zrotation Yrotation Xrotation
			JOINT Spine1
			{
				OFFSET 0.000000 1.950000 0.060000
				CHANNELS 3 Zrotation Yrotation Xrotation
				JOINT Neck
				{
					OFFSET 0.000000 0.000000 0.000000
					CHANNELS 3 Zrotation Yrotation Xrotation
					JOINT Neck1
					{
						OFFSET 0.000000 1.600000 0.340000
						CHANNELS 3 Zrotation Yrotation Xrotation
						JOINT Head
						{
							OFFSET 0.000000 1.667000 -0.240000
							CHANNELS 3 Zrotation Yrotation Xrotation
							End Site
							{
								OFFSET 0.000000 0.000000 0.000000
							}
						}
					}
				}
				JOINT LeftShoulder
				{
					OFFSET 0.000000 0.000000 0.000000
					CHANNELS 3 Zrotation Yrotation Xrotation
					JOINT LeftArm
					{
						OFFSET 2.700000 1.550000 -0.730000
						CHANNELS 3 Zrotation Yrotation Xrotation
						JOINT LeftForeArm
						{
							OFFSET 5.450000 0.000000 0.000000
							CHANNELS 3 Zrotation Yrotation Xrotation
							JOINT LeftHand
							{
								OFFSET 3.450000 0.000000 0.000000
								CHANNELS 3 Zrotation Yrotation Xrotation
								JOINT LeftHandIndex1
								{
									OFFSET 0.750000 0.000000 0.000000
									CHANNELS 3 Zrotation Yrotation Xrotation
									End Site
									{
										OFFSET 0.000000 0.000000 0.000000
									}
								}
							}
						}
					}
				}
				JOINT RightShoulder
				{
					OFFSET 0.000000 0.000000 0.000000
					CHANNELS 3 Zrotation Yrotation Xrotation
					JOINT RightArm
					{
						OFFSET -2.700000 1.550000 -0.730000
						CHANNELS 3 Zrotation Yrotation Xrotation
						JOINT RightForeArm
						{
							OFFSET -5.450000 0.000000 0.000000
							CHANNELS 3 Zrotation Yrotation Xrotation
							JOINT RightHand
							{
								OFFSET -3.450000 0.000000 0.000000
								CHANNELS 3 Zrotation Yrotation Xrotation
								JOINT RightHandIndex1
								{
									OFFSET -0.750000 0.000000 0.000000
									CHANNELS 3 Zrotation Yrotation Xrotation
									End Site
									{
										OFFSET 0.000000 0.000000 0.000000
									}
								}
							}
						}
					}
				}
			}
		}
	}
}
MOTION
Frames: 12
Frame Time: 0.016667
0.334660 16.852120 -2.082350 2.185608 -45.060031 -4.363077 -15.876152 15.014720 3.439926 6.940502 -0.585839 3.204719 -9.259954 6.186326 4.253083 0.426089 5.351925 2.975696 0.707720 0.554320 0.974470 17.695044 -9.124917 1.827737 -13.795736 -1.354975 -19.469053 -1.182884 -2.432697 6.116472 -0.096887 -2.381809 3.421269 0.301280 -0.010460 0.532080 -0.811837 -8.201484 -7.387086 -5.514302 -6.072826 7.595646 7.154044 -7.656311 18.200116 -6.924460 -0.271211 -15.081301 -6.656178 17.348123 33.069541 -15.175260 29.469220 -8.818080 -5.001908 -19.116539 10.638826 -52.593314 -76.492620 38.974042 56.591116 -59.503951 -35.233050 -4.590479 2.470778 0.026430 0.441250 0.192680 0.160810 17.992840 12.275735 4.340358 63.987075 6.667244 -6.645627 -13.861680 22.011099 -4.657316 2.423495 -2.062551 0.118010 -0.352290 -0.603110 -0.243600 
0.310800 16.856100 -2.073780 2.065481 -45.396209 -4.495460 -15.883576 15.080122 3.445602 6.814340 -0.373236 3.621940 -8.710291 6.140248 4.213106 0.450372 5.326348 2.986757 0.702820 0.540070 0.983550 17.682967 -9.101028 1.840923 -13.895575 -1.198982 -18.858429 -0.992112 -2.435295 5.931589 -0.105796 -2.370757 3.434765 0.276300 -0.031000 0.522150 -0.721286 -8.328718 -7.433942 -5.684903 -6.227611 7.488099 7.446273 -7.890791 17.732719 -6.919268 -0.239280 -14.334784 -6.797389 17.512086 34.064549 -15.497280 29.859260 -9.254970 -5.321558 -20.558885 9.582220 -49.154066 -72.696985 36.684754 62.226788 -64.052933 -40.666849 -4.404462 2.225640 0.052370 0.413350 0.210110 0.155170 18.242896 13.507308 5.037996 63.745866 6.918264 -6.578351 -13.308955 20.989320 -4.406243 2.444143 -2.036063 0.121270 -0.351730 -0.605790 -0.248910 
0.289480 16.860770 -2.067310 1.989285 -45.880638 -4.728043 -15.884551 15.123408 3.458189 6.737321 -0.182052 4.118865 -8.410902 6.136021 4.165203 0.460364 5.331728 2.990230 0.691350 0.519180 0.991100 17.676663 -9.089257 1.852760 -13.873388 -1.052246 -18.317434 -0.923956 -2.418675 5.755436 -0.106388 -2.358770 3.452162 0.259660 -0.049980 0.497980 -0.648836 -8.394185 -7.490870 -5.829691 -6.239344 7.514208 7.790884 -7.989111 17.433957 -6.909068 -0.117682 -13.737006 -6.794442 17.527008 35.094781 -16.022880 30.238110 -9.696050 -5.695588 -21.991580 8.739676 -45.992704 -69.760932 34.706868 68.601279 -67.722356 -46.894794 -4.324576 1.994163 0.088490 0.387440 0.221980 0.149220 18.547406 14.770880 5.696386 63.333561 7.220633 -6.495831 -12.972079 19.980875 -4.195318 2.460629 -2.007973 0.101970 -0.342220 -0.611200 -0.261400 
0.272090 16.868830 -2.069670 2.103800 -46.341616 -5.217592 -15.886953 15.185444 3.470740 6.572242 0.010044 4.489301 -8.155267 6.176636 4.446698 0.482955 5.323303 2.987147 0.690230 0.504940 1.015390 17.660822 -9.102653 1.864618 -13.839654 -0.929466 -17.884954 -0.935403 -2.415234 5.785759 -0.114570 -2.339007 3.461192 0.235600 -0.090640 0.494660 -0.505301 -8.450292 -7.587483 -6.504825 -6.015503 7.877787 8.553768 -7.886394 17.388217 -6.904802 0.140068 -13.426567 -6.597921 17.205001 36.360608 -17.285050 30.639810 -10.536920 -5.880917 -23.105999 8.354435 -43.274386 -68.192670 33.384970 75.969031 -69.890004 -54.263457 -4.489416 2.048655 0.119150 0.357370 0.249760 0.139070 18.726579 15.897399 6.175444 62.851521 7.722079 -6.405957 -12.626822 19.196626 -4.010993 2.485069 -1.993475 0.107010 -0.358200 -0.623160 -0.274610 
0.256070 16.873330 -2.062410 1.862633 -45.729700 -5.497687 -15.885308 15.286460 3.488824 6.779285 0.060072 4.560271 -7.808039 6.235864 5.047910 0.492531 5.307706 2.982183 0.693900 0.498700 1.038820 17.627413 -9.155551 1.893151 -13.884238 -0.867954 -16.907916 -0.901000 -2.444863 5.754541 -0.130326 -2.360037 3.454612 0.217970 -0.128270 0.497220 -0.354489 -8.520908 -7.771523 -7.067434 -6.074468 8.706503 9.359288 -8.073942 17.341802 -6.885853 0.567340 -13.696239 -6.023818 16.709532 37.813233 -18.362380 30.878510 -11.320180 -5.514857 -23.662581 8.624197 -41.444062 -68.446533 32.139699 82.980719 -71.126969 -62.148386 -5.137414 2.854515 0.142560 0.332540 0.276140 0.130050 18.456279 16.452480 6.197385 62.502099 8.385829 -6.194510 -11.975329 18.412717 -3.801506 2.512431 -1.990671 0.116760 -0.375700 -0.633920 -0.285410 
0.242230 16.872670 -2.058330 1.623977 -45.391238 -5.766287 -15.875494 15.399339 3.533158 6.998363 0.109127 4.602333 -7.523373 6.308116 5.710762 0.497988 5.304833 2.973468 0.683580 0.479660 1.045390 17.590218 -9.241912 1.955323 -13.804017 -0.767854 -16.170345 -0.988472 -2.446604 5.813344 -0.132763 -2.364392 3.452072 0.195330 -0.147700 0.504250 -0.148376 -8.569825 -8.067818 -7.804321 -5.855724 10.219338 10.486332 -7.933622 16.768248 -6.905601 0.971197 -14.545063 -5.264637 16.182588 39.320005 -19.205520 31.097360 -11.814690 -4.524217 -23.407973 9.032364 -41.490396 -69.858211 29.161834 89.533493 -74.407616 -69.855358 -6.044550 4.015111 0.154990 0.321610 0.288530 0.117070 17.869870 16.522674 5.982477 62.334671 8.993952 -6.032600 -11.335569 18.089290 -3.678118 2.536518 -1.999643 0.125070 -0.389750 -0.627110 -0.293820 
0.233060 16.871310 -2.055230 1.640295 -45.030020 -6.157893 -15.898361 15.484172 3.535985 7.084526 0.179327 4.579269 -7.379625 6.424113 6.513835 0.503270 5.320427 2.960021 0.678900 0.465480 1.052250 17.549468 -9.292175 1.962011 -14.014185 -0.723422 -15.639610 -0.856448 -2.517365 6.115257 -0.136744 -2.386793 3.442773 0.178960 -0.164390 0.510400 0.080720 -8.657659 -8.204259 -8.735577 -5.588184 11.654801 11.779281 -7.709699 15.899471 -7.013899 1.272250 -15.537478 -4.676748 15.777221 40.705290 -19.848140 31.283910 -12.203150 -3.244188 -22.695618 9.264964 -43.464773 -71.715344 26.855940 98.357237 -77.820973 -76.698875 -6.325496 3.448546 0.169530 0.311620 0.299760 0.109810 17.298774 16.338300 5.722628 62.105309 9.507388 -5.864428 -10.814360 17.927479 -3.605229 2.565270 -2.005873 0.129860 -0.401760 -0.624960 -0.301780 
0.230690 16.872050 -2.051840 1.572203 -44.929420 -6.545649 -15.924806 15.595273 3.516271 7.173083 0.269261 4.554830 -7.346116 6.602689 7.382716 0.526270 5.368356 2.939140 0.664170 0.447880 1.051870 17.523623 -9.258900 1.924012 -14.062772 -0.653054 -15.083265 -0.856639 -2.543805 6.362290 -0.132719 -2.393922 3.447463 0.160370 -0.177450 0.510140 0.229423 -8.900787 -8.220606 -9.196765 -5.582911 11.719228 12.207642 -7.863292 15.736729 -7.119513 1.654617 -14.869349 -4.194451 15.386715 41.559959 -20.711080 31.493480 -12.488940 -2.943721 -24.499743 7.658268 -41.398742 -69.790989 27.270354 104.958015 -75.198240 -80.758321 -5.845844 1.884302 0.174900 0.305510 0.308490 0.103740 17.055885 17.790748 6.720852 61.814360 9.652947 -5.824289 -10.771134 17.817534 -3.584181 2.568140 -2.003285 0.132250 -0.410660 -0.624100 -0.304850 
0.233620 16.873750 -2.050970 1.513605 -44.864788 -6.992194 -15.948462 15.711556 3.480789 7.259792 0.367073 4.526522 -7.348636 6.801238 8.265177 0.555822 5.423363 2.913900 0.660920 0.443550 1.055980 17.506830 -9.186034 1.853681 -14.134610 -0.596891 -14.465454 -0.865547 -2.574902 6.658484 -0.136890 -2.399335 3.454753 0.145080 -0.196450 0.507520 0.312711 -9.187691 -8.163407 -9.385712 -5.647718 10.833242 12.207067 -8.227798 16.544479 -7.346387 2.073599 -13.419320 -3.938482 15.156497 41.964181 -21.226580 31.527020 -12.869430 -2.949159 -27.877610 5.852264 -37.095358 -65.460075 28.025921 111.304004 -69.252596 -84.090674 -5.171909 0.855500 0.183580 0.290220 0.322140 0.099990 16.842890 20.337865 8.347077 61.568850 9.718479 -5.956294 -11.346468 17.775572 -3.629972 2.547575 -1.990226 0.141470 -0.417390 -0.627250 -0.305940 
0.237410 16.873040 -2.050380 1.567708 -44.724381 -7.496598 -15.980503 15.758999 3.413586 7.303584 0.464647 4.503582 -7.422002 7.022355 9.225475 0.577537 5.481007 2.885725 0.661770 0.446050 1.062680 17.494651 -9.128953 1.770885 -14.306509 -0.579383 -13.861351 -0.821288 -2.632616 6.907202 -0.148414 -2.430782 3.453713 0.138800 -0.219440 0.498870 0.369476 -9.333285 -8.022340 -9.658834 -5.470882 10.050860 12.375751 -8.346936 17.550778 -7.509818 2.526875 -12.562062 -3.494592 14.804668 42.176535 -21.618490 31.489110 -13.277270 -2.596003 -30.138907 5.089810 -34.567318 -62.563606 28.382257 116.288783 -64.205408 -86.511787 -4.813729 0.703152 0.193670 0.273410 0.336030 0.096840 16.278851 22.076677 9.338040 61.526081 9.951077 -6.168868 -11.989419 18.095537 -3.762874 2.533984 -1.972913 0.145810 -0.421860 -0.635100 -0.309270 
0.242740 16.872550 -2.051150 1.759886 -44.298711 -8.119209 -16.028490 15.809259 3.353607 7.311895 0.538650 4.413540 -7.598358 7.273501 10.233844 0.606311 5.551127 2.852812 0.657780 0.444430 1.059320 17.469500 -9.060358 1.681826 -14.708446 -0.612680 -13.205539 -0.671833 -2.727000 7.133071 -0.162214 -2.477814 3.449030 0.127160 -0.236260 0.490570 0.477667 -9.516373 -7.915624 -10.413167 -5.254307 9.534919 13.077676 -8.417299 18.337774 -7.710986 2.937967 -12.084965 -3.050069 14.560493 42.633444 -21.708450 31.534770 -13.466830 -2.160973 -32.053760 4.544819 -32.259825 -60.210474 27.147326 120.531059 -60.563148 -87.770173 -4.688125 0.763635 0.200660 0.257840 0.345210 0.093940 15.904088 23.700646 10.279966 60.963747 10.026022 -6.261927 -12.231097 18.054886 -3.763692 2.530391 -1.955494 0.152920 -0.425780 -0.635890 -0.309900 
0.257590 16.873130 -2.053010 1.817240 -43.871204 -8.708030 -16.057974 15.826397 3.280964 7.338433 0.590117 4.323660 -7.610212 7.495766 11.333752 0.633049 5.623116 2.828132 0.648680 0.432190 1.059840 17.461118 -9.027168 1.603188 -15.104164 -0.666511 -12.591140 -0.481125 -2.852037 7.432185 -0.179806 -2.544146 3.431692 0.112260 -0.243300 0.490150 0.503887 -9.579636 -7.790376 -10.782608 -4.942413 9.239900 13.820621 -8.435692 19.145756 -7.824214 3.225977 -11.735761 -2.732896 14.087967 43.035710 -21.998260 31.486970 -13.292280 -1.979763 -33.769222 4.133857 -29.528929 -58.075539 24.957674 124.143342 -57.598779 -88.182430 -4.630526 0.904458 0.206900 0.249850 0.355790 0.094780 15.706062 25.175106 11.091075 59.763181 10.131679 -6.191441 -12.218781 17.766023 -3.673871 2.542320 -1.937907 0.155070 -0.429130 -0.641090 -0.306620 
